<mxfile host="app.diagrams.net" agent="Mozilla/5.0 (Windows NT 10.0; Win64; x64) AppleWebKit/537.36 (KHTML, like Gecko) Chrome/139.0.0.0 Safari/537.36" version="28.1.1">
  <diagram name="페이지-1" id="oCtiQNkpkgry0I2lsgXV">
    <mxGraphModel dx="1355" dy="2084" grid="1" gridSize="10" guides="1" tooltips="1" connect="1" arrows="1" fold="1" page="1" pageScale="1" pageWidth="827" pageHeight="1169" math="0" shadow="0">
      <root>
        <mxCell id="0" />
        <mxCell id="1" parent="0" />
        <mxCell id="-64R4cn32s9kmWbZgJ81-1" value="users" style="rounded=0;whiteSpace=wrap;html=1;" vertex="1" parent="1">
          <mxGeometry x="1170" y="100" width="120" height="60" as="geometry" />
        </mxCell>
        <mxCell id="-64R4cn32s9kmWbZgJ81-2" value="posts" style="rounded=0;whiteSpace=wrap;html=1;" vertex="1" parent="1">
          <mxGeometry x="1170" y="460" width="120" height="60" as="geometry" />
        </mxCell>
        <mxCell id="-64R4cn32s9kmWbZgJ81-3" value="categories" style="rounded=0;whiteSpace=wrap;html=1;" vertex="1" parent="1">
          <mxGeometry x="1170" y="780" width="120" height="60" as="geometry" />
        </mxCell>
        <mxCell id="-64R4cn32s9kmWbZgJ81-4" value="views" style="rounded=0;whiteSpace=wrap;html=1;" vertex="1" parent="1">
          <mxGeometry x="1180" y="1000" width="120" height="60" as="geometry" />
        </mxCell>
        <mxCell id="-64R4cn32s9kmWbZgJ81-5" value="hashtags" style="rounded=0;whiteSpace=wrap;html=1;" vertex="1" parent="1">
          <mxGeometry x="1180" y="1250" width="120" height="60" as="geometry" />
        </mxCell>
        <mxCell id="-64R4cn32s9kmWbZgJ81-6" value="reports" style="rounded=0;whiteSpace=wrap;html=1;" vertex="1" parent="1">
          <mxGeometry x="1180" y="1880" width="120" height="60" as="geometry" />
        </mxCell>
        <mxCell id="-64R4cn32s9kmWbZgJ81-7" value="follow&lt;span style=&quot;background-color: transparent; color: light-dark(rgb(0, 0, 0), rgb(255, 255, 255));&quot;&gt;s&lt;/span&gt;" style="rounded=0;whiteSpace=wrap;html=1;" vertex="1" parent="1">
          <mxGeometry x="1180" y="2140" width="120" height="60" as="geometry" />
        </mxCell>
        <mxCell id="-64R4cn32s9kmWbZgJ81-8" value="email" style="ellipse;whiteSpace=wrap;html=1;" vertex="1" parent="1">
          <mxGeometry x="1170" y="190" width="120" height="40" as="geometry" />
        </mxCell>
        <mxCell id="-64R4cn32s9kmWbZgJ81-9" value="password" style="ellipse;whiteSpace=wrap;html=1;" vertex="1" parent="1">
          <mxGeometry x="1330" y="140" width="120" height="40" as="geometry" />
        </mxCell>
        <mxCell id="-64R4cn32s9kmWbZgJ81-10" value="name" style="ellipse;whiteSpace=wrap;html=1;" vertex="1" parent="1">
          <mxGeometry x="1100" y="40" width="120" height="40" as="geometry" />
        </mxCell>
        <mxCell id="-64R4cn32s9kmWbZgJ81-11" value="age" style="ellipse;whiteSpace=wrap;html=1;" vertex="1" parent="1">
          <mxGeometry x="1010" y="110" width="120" height="40" as="geometry" />
        </mxCell>
        <mxCell id="-64R4cn32s9kmWbZgJ81-12" value="id" style="ellipse;whiteSpace=wrap;html=1;align=center;fontStyle=4;" vertex="1" parent="1">
          <mxGeometry x="1280" y="40" width="100" height="40" as="geometry" />
        </mxCell>
        <mxCell id="-64R4cn32s9kmWbZgJ81-13" value="" style="endArrow=none;html=1;rounded=0;" edge="1" parent="1" target="-64R4cn32s9kmWbZgJ81-11">
          <mxGeometry relative="1" as="geometry">
            <mxPoint x="1170" y="129.5" as="sourcePoint" />
            <mxPoint x="1330" y="129.5" as="targetPoint" />
          </mxGeometry>
        </mxCell>
        <mxCell id="-64R4cn32s9kmWbZgJ81-14" value="" style="endArrow=none;html=1;rounded=0;exitX=0.58;exitY=0.989;exitDx=0;exitDy=0;exitPerimeter=0;" edge="1" parent="1" source="-64R4cn32s9kmWbZgJ81-12">
          <mxGeometry relative="1" as="geometry">
            <mxPoint x="1330" y="120" as="sourcePoint" />
            <mxPoint x="1290" y="120.5" as="targetPoint" />
          </mxGeometry>
        </mxCell>
        <mxCell id="-64R4cn32s9kmWbZgJ81-15" value="" style="endArrow=none;html=1;rounded=0;exitX=0;exitY=0.5;exitDx=0;exitDy=0;" edge="1" parent="1" source="-64R4cn32s9kmWbZgJ81-9">
          <mxGeometry relative="1" as="geometry">
            <mxPoint x="1338" y="110" as="sourcePoint" />
            <mxPoint x="1290" y="150.5" as="targetPoint" />
          </mxGeometry>
        </mxCell>
        <mxCell id="-64R4cn32s9kmWbZgJ81-16" value="" style="endArrow=none;html=1;rounded=0;" edge="1" parent="1" target="-64R4cn32s9kmWbZgJ81-8">
          <mxGeometry relative="1" as="geometry">
            <mxPoint x="1250" y="160" as="sourcePoint" />
            <mxPoint x="1270" y="180" as="targetPoint" />
          </mxGeometry>
        </mxCell>
        <mxCell id="-64R4cn32s9kmWbZgJ81-17" value="" style="endArrow=none;html=1;rounded=0;exitX=1;exitY=1;exitDx=0;exitDy=0;" edge="1" parent="1" source="-64R4cn32s9kmWbZgJ81-10">
          <mxGeometry relative="1" as="geometry">
            <mxPoint x="1268" y="59.5" as="sourcePoint" />
            <mxPoint x="1220" y="100" as="targetPoint" />
          </mxGeometry>
        </mxCell>
        <mxCell id="-64R4cn32s9kmWbZgJ81-18" value="users" style="shape=table;startSize=30;container=1;collapsible=1;childLayout=tableLayout;fixedRows=1;rowLines=0;fontStyle=1;align=center;resizeLast=1;html=1;" vertex="1" parent="1">
          <mxGeometry x="520" y="-190" width="180" height="180" as="geometry" />
        </mxCell>
        <mxCell id="-64R4cn32s9kmWbZgJ81-19" value="" style="shape=tableRow;horizontal=0;startSize=0;swimlaneHead=0;swimlaneBody=0;fillColor=none;collapsible=0;dropTarget=0;points=[[0,0.5],[1,0.5]];portConstraint=eastwest;top=0;left=0;right=0;bottom=1;" vertex="1" parent="-64R4cn32s9kmWbZgJ81-18">
          <mxGeometry y="30" width="180" height="30" as="geometry" />
        </mxCell>
        <mxCell id="-64R4cn32s9kmWbZgJ81-20" value="PK" style="shape=partialRectangle;connectable=0;fillColor=none;top=0;left=0;bottom=0;right=0;fontStyle=1;overflow=hidden;whiteSpace=wrap;html=1;" vertex="1" parent="-64R4cn32s9kmWbZgJ81-19">
          <mxGeometry width="30" height="30" as="geometry">
            <mxRectangle width="30" height="30" as="alternateBounds" />
          </mxGeometry>
        </mxCell>
        <mxCell id="-64R4cn32s9kmWbZgJ81-21" value="UniqueID" style="shape=partialRectangle;connectable=0;fillColor=none;top=0;left=0;bottom=0;right=0;align=left;spacingLeft=6;fontStyle=5;overflow=hidden;whiteSpace=wrap;html=1;" vertex="1" parent="-64R4cn32s9kmWbZgJ81-19">
          <mxGeometry x="30" width="150" height="30" as="geometry">
            <mxRectangle width="150" height="30" as="alternateBounds" />
          </mxGeometry>
        </mxCell>
        <mxCell id="-64R4cn32s9kmWbZgJ81-22" value="" style="shape=tableRow;horizontal=0;startSize=0;swimlaneHead=0;swimlaneBody=0;fillColor=none;collapsible=0;dropTarget=0;points=[[0,0.5],[1,0.5]];portConstraint=eastwest;top=0;left=0;right=0;bottom=0;" vertex="1" parent="-64R4cn32s9kmWbZgJ81-18">
          <mxGeometry y="60" width="180" height="30" as="geometry" />
        </mxCell>
        <mxCell id="-64R4cn32s9kmWbZgJ81-23" value="" style="shape=partialRectangle;connectable=0;fillColor=none;top=0;left=0;bottom=0;right=0;editable=1;overflow=hidden;whiteSpace=wrap;html=1;" vertex="1" parent="-64R4cn32s9kmWbZgJ81-22">
          <mxGeometry width="30" height="30" as="geometry">
            <mxRectangle width="30" height="30" as="alternateBounds" />
          </mxGeometry>
        </mxCell>
        <mxCell id="-64R4cn32s9kmWbZgJ81-24" value="name" style="shape=partialRectangle;connectable=0;fillColor=none;top=0;left=0;bottom=0;right=0;align=left;spacingLeft=6;overflow=hidden;whiteSpace=wrap;html=1;" vertex="1" parent="-64R4cn32s9kmWbZgJ81-22">
          <mxGeometry x="30" width="150" height="30" as="geometry">
            <mxRectangle width="150" height="30" as="alternateBounds" />
          </mxGeometry>
        </mxCell>
        <mxCell id="-64R4cn32s9kmWbZgJ81-25" value="" style="shape=tableRow;horizontal=0;startSize=0;swimlaneHead=0;swimlaneBody=0;fillColor=none;collapsible=0;dropTarget=0;points=[[0,0.5],[1,0.5]];portConstraint=eastwest;top=0;left=0;right=0;bottom=0;" vertex="1" parent="-64R4cn32s9kmWbZgJ81-18">
          <mxGeometry y="90" width="180" height="30" as="geometry" />
        </mxCell>
        <mxCell id="-64R4cn32s9kmWbZgJ81-26" value="" style="shape=partialRectangle;connectable=0;fillColor=none;top=0;left=0;bottom=0;right=0;editable=1;overflow=hidden;whiteSpace=wrap;html=1;" vertex="1" parent="-64R4cn32s9kmWbZgJ81-25">
          <mxGeometry width="30" height="30" as="geometry">
            <mxRectangle width="30" height="30" as="alternateBounds" />
          </mxGeometry>
        </mxCell>
        <mxCell id="-64R4cn32s9kmWbZgJ81-27" value="email" style="shape=partialRectangle;connectable=0;fillColor=none;top=0;left=0;bottom=0;right=0;align=left;spacingLeft=6;overflow=hidden;whiteSpace=wrap;html=1;" vertex="1" parent="-64R4cn32s9kmWbZgJ81-25">
          <mxGeometry x="30" width="150" height="30" as="geometry">
            <mxRectangle width="150" height="30" as="alternateBounds" />
          </mxGeometry>
        </mxCell>
        <mxCell id="-64R4cn32s9kmWbZgJ81-28" value="" style="shape=tableRow;horizontal=0;startSize=0;swimlaneHead=0;swimlaneBody=0;fillColor=none;collapsible=0;dropTarget=0;points=[[0,0.5],[1,0.5]];portConstraint=eastwest;top=0;left=0;right=0;bottom=0;" vertex="1" parent="-64R4cn32s9kmWbZgJ81-18">
          <mxGeometry y="120" width="180" height="30" as="geometry" />
        </mxCell>
        <mxCell id="-64R4cn32s9kmWbZgJ81-29" value="" style="shape=partialRectangle;connectable=0;fillColor=none;top=0;left=0;bottom=0;right=0;editable=1;overflow=hidden;whiteSpace=wrap;html=1;" vertex="1" parent="-64R4cn32s9kmWbZgJ81-28">
          <mxGeometry width="30" height="30" as="geometry">
            <mxRectangle width="30" height="30" as="alternateBounds" />
          </mxGeometry>
        </mxCell>
        <mxCell id="-64R4cn32s9kmWbZgJ81-30" value="age" style="shape=partialRectangle;connectable=0;fillColor=none;top=0;left=0;bottom=0;right=0;align=left;spacingLeft=6;overflow=hidden;whiteSpace=wrap;html=1;" vertex="1" parent="-64R4cn32s9kmWbZgJ81-28">
          <mxGeometry x="30" width="150" height="30" as="geometry">
            <mxRectangle width="150" height="30" as="alternateBounds" />
          </mxGeometry>
        </mxCell>
        <mxCell id="-64R4cn32s9kmWbZgJ81-31" value="" style="shape=tableRow;horizontal=0;startSize=0;swimlaneHead=0;swimlaneBody=0;fillColor=none;collapsible=0;dropTarget=0;points=[[0,0.5],[1,0.5]];portConstraint=eastwest;top=0;left=0;right=0;bottom=0;" vertex="1" parent="-64R4cn32s9kmWbZgJ81-18">
          <mxGeometry y="150" width="180" height="30" as="geometry" />
        </mxCell>
        <mxCell id="-64R4cn32s9kmWbZgJ81-32" value="" style="shape=partialRectangle;connectable=0;fillColor=none;top=0;left=0;bottom=0;right=0;editable=1;overflow=hidden;whiteSpace=wrap;html=1;" vertex="1" parent="-64R4cn32s9kmWbZgJ81-31">
          <mxGeometry width="30" height="30" as="geometry">
            <mxRectangle width="30" height="30" as="alternateBounds" />
          </mxGeometry>
        </mxCell>
        <mxCell id="-64R4cn32s9kmWbZgJ81-33" value="password" style="shape=partialRectangle;connectable=0;fillColor=none;top=0;left=0;bottom=0;right=0;align=left;spacingLeft=6;overflow=hidden;whiteSpace=wrap;html=1;" vertex="1" parent="-64R4cn32s9kmWbZgJ81-31">
          <mxGeometry x="30" width="150" height="30" as="geometry">
            <mxRectangle width="150" height="30" as="alternateBounds" />
          </mxGeometry>
        </mxCell>
        <mxCell id="-64R4cn32s9kmWbZgJ81-34" value="users_id(FK)" style="ellipse;whiteSpace=wrap;html=1;align=center;" vertex="1" parent="1">
          <mxGeometry x="1020" y="525" width="100" height="40" as="geometry" />
        </mxCell>
        <mxCell id="-64R4cn32s9kmWbZgJ81-35" value="category" style="ellipse;whiteSpace=wrap;html=1;align=center;" vertex="1" parent="1">
          <mxGeometry x="1340" y="480" width="100" height="40" as="geometry" />
        </mxCell>
        <mxCell id="-64R4cn32s9kmWbZgJ81-36" value="categories_id(FK)" style="ellipse;whiteSpace=wrap;html=1;align=center;" vertex="1" parent="1">
          <mxGeometry x="1000" y="470" width="100" height="40" as="geometry" />
        </mxCell>
        <mxCell id="-64R4cn32s9kmWbZgJ81-37" value="view" style="ellipse;whiteSpace=wrap;html=1;align=center;" vertex="1" parent="1">
          <mxGeometry x="1161" y="565" width="100" height="40" as="geometry" />
        </mxCell>
        <mxCell id="-64R4cn32s9kmWbZgJ81-38" value="contents" style="ellipse;whiteSpace=wrap;html=1;align=center;" vertex="1" parent="1">
          <mxGeometry x="1190" y="400" width="100" height="40" as="geometry" />
        </mxCell>
        <mxCell id="-64R4cn32s9kmWbZgJ81-39" value="title" style="ellipse;whiteSpace=wrap;html=1;align=center;" vertex="1" parent="1">
          <mxGeometry x="1080" y="410" width="100" height="40" as="geometry" />
        </mxCell>
        <mxCell id="-64R4cn32s9kmWbZgJ81-40" value="createat" style="ellipse;whiteSpace=wrap;html=1;align=center;" vertex="1" parent="1">
          <mxGeometry x="1290" y="545" width="100" height="40" as="geometry" />
        </mxCell>
        <mxCell id="-64R4cn32s9kmWbZgJ81-41" value="PK" style="ellipse;whiteSpace=wrap;html=1;align=center;fontStyle=4;" vertex="1" parent="1">
          <mxGeometry x="1310" y="400" width="100" height="40" as="geometry" />
        </mxCell>
        <mxCell id="-64R4cn32s9kmWbZgJ81-42" value="" style="endArrow=none;html=1;rounded=0;exitX=0.426;exitY=1.011;exitDx=0;exitDy=0;exitPerimeter=0;entryX=1;entryY=0.25;entryDx=0;entryDy=0;" edge="1" parent="1" source="-64R4cn32s9kmWbZgJ81-41" target="-64R4cn32s9kmWbZgJ81-2">
          <mxGeometry relative="1" as="geometry">
            <mxPoint x="1338" y="439.75" as="sourcePoint" />
            <mxPoint x="1290" y="480.25" as="targetPoint" />
          </mxGeometry>
        </mxCell>
        <mxCell id="-64R4cn32s9kmWbZgJ81-43" value="" style="endArrow=none;html=1;rounded=0;exitX=0.234;exitY=0.911;exitDx=0;exitDy=0;exitPerimeter=0;entryX=1;entryY=0.75;entryDx=0;entryDy=0;" edge="1" parent="1" source="-64R4cn32s9kmWbZgJ81-35" target="-64R4cn32s9kmWbZgJ81-2">
          <mxGeometry relative="1" as="geometry">
            <mxPoint x="1353" y="514" as="sourcePoint" />
            <mxPoint x="1290" y="549" as="targetPoint" />
          </mxGeometry>
        </mxCell>
        <mxCell id="-64R4cn32s9kmWbZgJ81-44" value="" style="endArrow=none;html=1;rounded=0;exitX=0.346;exitY=0.029;exitDx=0;exitDy=0;exitPerimeter=0;entryX=0.75;entryY=1;entryDx=0;entryDy=0;" edge="1" parent="1" source="-64R4cn32s9kmWbZgJ81-40" target="-64R4cn32s9kmWbZgJ81-2">
          <mxGeometry relative="1" as="geometry">
            <mxPoint x="1330" y="531" as="sourcePoint" />
            <mxPoint x="1257" y="520" as="targetPoint" />
          </mxGeometry>
        </mxCell>
        <mxCell id="-64R4cn32s9kmWbZgJ81-45" value="" style="endArrow=none;html=1;rounded=0;exitX=0.5;exitY=0;exitDx=0;exitDy=0;entryX=0.25;entryY=1;entryDx=0;entryDy=0;" edge="1" parent="1" source="-64R4cn32s9kmWbZgJ81-37" target="-64R4cn32s9kmWbZgJ81-2">
          <mxGeometry relative="1" as="geometry">
            <mxPoint x="1272.5" y="546" as="sourcePoint" />
            <mxPoint x="1207.5" y="520" as="targetPoint" />
          </mxGeometry>
        </mxCell>
        <mxCell id="-64R4cn32s9kmWbZgJ81-46" value="" style="endArrow=none;html=1;rounded=0;exitX=1;exitY=0;exitDx=0;exitDy=0;entryX=0;entryY=0.75;entryDx=0;entryDy=0;" edge="1" parent="1" source="-64R4cn32s9kmWbZgJ81-34" target="-64R4cn32s9kmWbZgJ81-2">
          <mxGeometry relative="1" as="geometry">
            <mxPoint x="1235" y="520" as="sourcePoint" />
            <mxPoint x="1170" y="494" as="targetPoint" />
          </mxGeometry>
        </mxCell>
        <mxCell id="-64R4cn32s9kmWbZgJ81-47" value="" style="endArrow=none;html=1;rounded=0;exitX=1;exitY=0.5;exitDx=0;exitDy=0;entryX=0;entryY=0.25;entryDx=0;entryDy=0;" edge="1" parent="1" source="-64R4cn32s9kmWbZgJ81-36" target="-64R4cn32s9kmWbZgJ81-2">
          <mxGeometry relative="1" as="geometry">
            <mxPoint x="1130" y="484" as="sourcePoint" />
            <mxPoint x="1162" y="460" as="targetPoint" />
          </mxGeometry>
        </mxCell>
        <mxCell id="-64R4cn32s9kmWbZgJ81-48" value="" style="endArrow=none;html=1;rounded=0;exitX=0.76;exitY=0.975;exitDx=0;exitDy=0;entryX=0.25;entryY=0;entryDx=0;entryDy=0;exitPerimeter=0;" edge="1" parent="1" source="-64R4cn32s9kmWbZgJ81-39" target="-64R4cn32s9kmWbZgJ81-2">
          <mxGeometry relative="1" as="geometry">
            <mxPoint x="1150" y="500" as="sourcePoint" />
            <mxPoint x="1188" y="504" as="targetPoint" />
          </mxGeometry>
        </mxCell>
        <mxCell id="-64R4cn32s9kmWbZgJ81-49" value="" style="endArrow=none;html=1;rounded=0;exitX=0.75;exitY=0;exitDx=0;exitDy=0;entryX=0.5;entryY=1;entryDx=0;entryDy=0;" edge="1" parent="1" source="-64R4cn32s9kmWbZgJ81-2" target="-64R4cn32s9kmWbZgJ81-38">
          <mxGeometry relative="1" as="geometry">
            <mxPoint x="1166" y="459" as="sourcePoint" />
            <mxPoint x="1210" y="470" as="targetPoint" />
          </mxGeometry>
        </mxCell>
        <mxCell id="-64R4cn32s9kmWbZgJ81-50" value="posts" style="shape=table;startSize=30;container=1;collapsible=1;childLayout=tableLayout;fixedRows=1;rowLines=0;fontStyle=1;align=center;resizeLast=1;html=1;" vertex="1" parent="1">
          <mxGeometry x="180" y="-250" width="180" height="270" as="geometry" />
        </mxCell>
        <mxCell id="-64R4cn32s9kmWbZgJ81-51" value="" style="shape=tableRow;horizontal=0;startSize=0;swimlaneHead=0;swimlaneBody=0;fillColor=none;collapsible=0;dropTarget=0;points=[[0,0.5],[1,0.5]];portConstraint=eastwest;top=0;left=0;right=0;bottom=1;" vertex="1" parent="-64R4cn32s9kmWbZgJ81-50">
          <mxGeometry y="30" width="180" height="30" as="geometry" />
        </mxCell>
        <mxCell id="-64R4cn32s9kmWbZgJ81-52" value="PK" style="shape=partialRectangle;connectable=0;fillColor=none;top=0;left=0;bottom=0;right=0;fontStyle=1;overflow=hidden;whiteSpace=wrap;html=1;" vertex="1" parent="-64R4cn32s9kmWbZgJ81-51">
          <mxGeometry width="30" height="30" as="geometry">
            <mxRectangle width="30" height="30" as="alternateBounds" />
          </mxGeometry>
        </mxCell>
        <mxCell id="-64R4cn32s9kmWbZgJ81-53" value="id" style="shape=partialRectangle;connectable=0;fillColor=none;top=0;left=0;bottom=0;right=0;align=left;spacingLeft=6;fontStyle=5;overflow=hidden;whiteSpace=wrap;html=1;" vertex="1" parent="-64R4cn32s9kmWbZgJ81-51">
          <mxGeometry x="30" width="150" height="30" as="geometry">
            <mxRectangle width="150" height="30" as="alternateBounds" />
          </mxGeometry>
        </mxCell>
        <mxCell id="-64R4cn32s9kmWbZgJ81-54" value="" style="shape=tableRow;horizontal=0;startSize=0;swimlaneHead=0;swimlaneBody=0;fillColor=none;collapsible=0;dropTarget=0;points=[[0,0.5],[1,0.5]];portConstraint=eastwest;top=0;left=0;right=0;bottom=1;" vertex="1" parent="-64R4cn32s9kmWbZgJ81-50">
          <mxGeometry y="60" width="180" height="30" as="geometry" />
        </mxCell>
        <mxCell id="-64R4cn32s9kmWbZgJ81-55" value="FK" style="shape=partialRectangle;connectable=0;fillColor=none;top=0;left=0;bottom=0;right=0;fontStyle=1;overflow=hidden;whiteSpace=wrap;html=1;" vertex="1" parent="-64R4cn32s9kmWbZgJ81-54">
          <mxGeometry width="30" height="30" as="geometry">
            <mxRectangle width="30" height="30" as="alternateBounds" />
          </mxGeometry>
        </mxCell>
        <mxCell id="-64R4cn32s9kmWbZgJ81-56" value="users_id" style="shape=partialRectangle;connectable=0;fillColor=none;top=0;left=0;bottom=0;right=0;align=left;spacingLeft=6;fontStyle=5;overflow=hidden;whiteSpace=wrap;html=1;" vertex="1" parent="-64R4cn32s9kmWbZgJ81-54">
          <mxGeometry x="30" width="150" height="30" as="geometry">
            <mxRectangle width="150" height="30" as="alternateBounds" />
          </mxGeometry>
        </mxCell>
        <mxCell id="-64R4cn32s9kmWbZgJ81-57" value="" style="shape=tableRow;horizontal=0;startSize=0;swimlaneHead=0;swimlaneBody=0;fillColor=none;collapsible=0;dropTarget=0;points=[[0,0.5],[1,0.5]];portConstraint=eastwest;top=0;left=0;right=0;bottom=1;" vertex="1" parent="-64R4cn32s9kmWbZgJ81-50">
          <mxGeometry y="90" width="180" height="30" as="geometry" />
        </mxCell>
        <mxCell id="-64R4cn32s9kmWbZgJ81-58" value="FK" style="shape=partialRectangle;connectable=0;fillColor=none;top=0;left=0;bottom=0;right=0;fontStyle=1;overflow=hidden;whiteSpace=wrap;html=1;" vertex="1" parent="-64R4cn32s9kmWbZgJ81-57">
          <mxGeometry width="30" height="30" as="geometry">
            <mxRectangle width="30" height="30" as="alternateBounds" />
          </mxGeometry>
        </mxCell>
        <mxCell id="-64R4cn32s9kmWbZgJ81-59" value="categories" style="shape=partialRectangle;connectable=0;fillColor=none;top=0;left=0;bottom=0;right=0;align=left;spacingLeft=6;fontStyle=5;overflow=hidden;whiteSpace=wrap;html=1;" vertex="1" parent="-64R4cn32s9kmWbZgJ81-57">
          <mxGeometry x="30" width="150" height="30" as="geometry">
            <mxRectangle width="150" height="30" as="alternateBounds" />
          </mxGeometry>
        </mxCell>
        <mxCell id="-64R4cn32s9kmWbZgJ81-60" value="" style="shape=tableRow;horizontal=0;startSize=0;swimlaneHead=0;swimlaneBody=0;fillColor=none;collapsible=0;dropTarget=0;points=[[0,0.5],[1,0.5]];portConstraint=eastwest;top=0;left=0;right=0;bottom=0;" vertex="1" parent="-64R4cn32s9kmWbZgJ81-50">
          <mxGeometry y="120" width="180" height="30" as="geometry" />
        </mxCell>
        <mxCell id="-64R4cn32s9kmWbZgJ81-61" value="" style="shape=partialRectangle;connectable=0;fillColor=none;top=0;left=0;bottom=0;right=0;editable=1;overflow=hidden;whiteSpace=wrap;html=1;" vertex="1" parent="-64R4cn32s9kmWbZgJ81-60">
          <mxGeometry width="30" height="30" as="geometry">
            <mxRectangle width="30" height="30" as="alternateBounds" />
          </mxGeometry>
        </mxCell>
        <mxCell id="-64R4cn32s9kmWbZgJ81-62" value="title" style="shape=partialRectangle;connectable=0;fillColor=none;top=0;left=0;bottom=0;right=0;align=left;spacingLeft=6;overflow=hidden;whiteSpace=wrap;html=1;" vertex="1" parent="-64R4cn32s9kmWbZgJ81-60">
          <mxGeometry x="30" width="150" height="30" as="geometry">
            <mxRectangle width="150" height="30" as="alternateBounds" />
          </mxGeometry>
        </mxCell>
        <mxCell id="-64R4cn32s9kmWbZgJ81-63" value="" style="shape=tableRow;horizontal=0;startSize=0;swimlaneHead=0;swimlaneBody=0;fillColor=none;collapsible=0;dropTarget=0;points=[[0,0.5],[1,0.5]];portConstraint=eastwest;top=0;left=0;right=0;bottom=0;" vertex="1" parent="-64R4cn32s9kmWbZgJ81-50">
          <mxGeometry y="150" width="180" height="30" as="geometry" />
        </mxCell>
        <mxCell id="-64R4cn32s9kmWbZgJ81-64" value="" style="shape=partialRectangle;connectable=0;fillColor=none;top=0;left=0;bottom=0;right=0;editable=1;overflow=hidden;whiteSpace=wrap;html=1;" vertex="1" parent="-64R4cn32s9kmWbZgJ81-63">
          <mxGeometry width="30" height="30" as="geometry">
            <mxRectangle width="30" height="30" as="alternateBounds" />
          </mxGeometry>
        </mxCell>
        <mxCell id="-64R4cn32s9kmWbZgJ81-65" value="contents" style="shape=partialRectangle;connectable=0;fillColor=none;top=0;left=0;bottom=0;right=0;align=left;spacingLeft=6;overflow=hidden;whiteSpace=wrap;html=1;" vertex="1" parent="-64R4cn32s9kmWbZgJ81-63">
          <mxGeometry x="30" width="150" height="30" as="geometry">
            <mxRectangle width="150" height="30" as="alternateBounds" />
          </mxGeometry>
        </mxCell>
        <mxCell id="-64R4cn32s9kmWbZgJ81-66" value="" style="shape=tableRow;horizontal=0;startSize=0;swimlaneHead=0;swimlaneBody=0;fillColor=none;collapsible=0;dropTarget=0;points=[[0,0.5],[1,0.5]];portConstraint=eastwest;top=0;left=0;right=0;bottom=0;" vertex="1" parent="-64R4cn32s9kmWbZgJ81-50">
          <mxGeometry y="180" width="180" height="30" as="geometry" />
        </mxCell>
        <mxCell id="-64R4cn32s9kmWbZgJ81-67" value="" style="shape=partialRectangle;connectable=0;fillColor=none;top=0;left=0;bottom=0;right=0;editable=1;overflow=hidden;whiteSpace=wrap;html=1;" vertex="1" parent="-64R4cn32s9kmWbZgJ81-66">
          <mxGeometry width="30" height="30" as="geometry">
            <mxRectangle width="30" height="30" as="alternateBounds" />
          </mxGeometry>
        </mxCell>
        <mxCell id="-64R4cn32s9kmWbZgJ81-68" value="category" style="shape=partialRectangle;connectable=0;fillColor=none;top=0;left=0;bottom=0;right=0;align=left;spacingLeft=6;overflow=hidden;whiteSpace=wrap;html=1;" vertex="1" parent="-64R4cn32s9kmWbZgJ81-66">
          <mxGeometry x="30" width="150" height="30" as="geometry">
            <mxRectangle width="150" height="30" as="alternateBounds" />
          </mxGeometry>
        </mxCell>
        <mxCell id="-64R4cn32s9kmWbZgJ81-69" value="" style="shape=tableRow;horizontal=0;startSize=0;swimlaneHead=0;swimlaneBody=0;fillColor=none;collapsible=0;dropTarget=0;points=[[0,0.5],[1,0.5]];portConstraint=eastwest;top=0;left=0;right=0;bottom=0;" vertex="1" parent="-64R4cn32s9kmWbZgJ81-50">
          <mxGeometry y="210" width="180" height="30" as="geometry" />
        </mxCell>
        <mxCell id="-64R4cn32s9kmWbZgJ81-70" value="" style="shape=partialRectangle;connectable=0;fillColor=none;top=0;left=0;bottom=0;right=0;editable=1;overflow=hidden;whiteSpace=wrap;html=1;" vertex="1" parent="-64R4cn32s9kmWbZgJ81-69">
          <mxGeometry width="30" height="30" as="geometry">
            <mxRectangle width="30" height="30" as="alternateBounds" />
          </mxGeometry>
        </mxCell>
        <mxCell id="-64R4cn32s9kmWbZgJ81-71" value="createat" style="shape=partialRectangle;connectable=0;fillColor=none;top=0;left=0;bottom=0;right=0;align=left;spacingLeft=6;overflow=hidden;whiteSpace=wrap;html=1;" vertex="1" parent="-64R4cn32s9kmWbZgJ81-69">
          <mxGeometry x="30" width="150" height="30" as="geometry">
            <mxRectangle width="150" height="30" as="alternateBounds" />
          </mxGeometry>
        </mxCell>
        <mxCell id="-64R4cn32s9kmWbZgJ81-72" value="" style="shape=tableRow;horizontal=0;startSize=0;swimlaneHead=0;swimlaneBody=0;fillColor=none;collapsible=0;dropTarget=0;points=[[0,0.5],[1,0.5]];portConstraint=eastwest;top=0;left=0;right=0;bottom=0;" vertex="1" parent="-64R4cn32s9kmWbZgJ81-50">
          <mxGeometry y="240" width="180" height="30" as="geometry" />
        </mxCell>
        <mxCell id="-64R4cn32s9kmWbZgJ81-73" value="" style="shape=partialRectangle;connectable=0;fillColor=none;top=0;left=0;bottom=0;right=0;editable=1;overflow=hidden;whiteSpace=wrap;html=1;" vertex="1" parent="-64R4cn32s9kmWbZgJ81-72">
          <mxGeometry width="30" height="30" as="geometry">
            <mxRectangle width="30" height="30" as="alternateBounds" />
          </mxGeometry>
        </mxCell>
        <mxCell id="-64R4cn32s9kmWbZgJ81-74" value="view" style="shape=partialRectangle;connectable=0;fillColor=none;top=0;left=0;bottom=0;right=0;align=left;spacingLeft=6;overflow=hidden;whiteSpace=wrap;html=1;" vertex="1" parent="-64R4cn32s9kmWbZgJ81-72">
          <mxGeometry x="30" width="150" height="30" as="geometry">
            <mxRectangle width="150" height="30" as="alternateBounds" />
          </mxGeometry>
        </mxCell>
        <mxCell id="-64R4cn32s9kmWbZgJ81-75" value="id" style="ellipse;whiteSpace=wrap;html=1;align=center;fontStyle=4;" vertex="1" parent="1">
          <mxGeometry x="1180" y="710" width="100" height="40" as="geometry" />
        </mxCell>
        <mxCell id="-64R4cn32s9kmWbZgJ81-76" value="name" style="ellipse;whiteSpace=wrap;html=1;align=center;" vertex="1" parent="1">
          <mxGeometry x="1330" y="790" width="100" height="40" as="geometry" />
        </mxCell>
        <mxCell id="-64R4cn32s9kmWbZgJ81-77" value="" style="endArrow=none;html=1;rounded=0;exitX=0.25;exitY=0;exitDx=0;exitDy=0;entryX=0.5;entryY=1;entryDx=0;entryDy=0;" edge="1" parent="1" source="-64R4cn32s9kmWbZgJ81-3" target="-64R4cn32s9kmWbZgJ81-75">
          <mxGeometry relative="1" as="geometry">
            <mxPoint x="1030" y="748.46" as="sourcePoint" />
            <mxPoint x="1190" y="748.46" as="targetPoint" />
          </mxGeometry>
        </mxCell>
        <mxCell id="-64R4cn32s9kmWbZgJ81-78" value="" style="endArrow=none;html=1;rounded=0;exitX=1;exitY=0.5;exitDx=0;exitDy=0;entryX=0;entryY=0.5;entryDx=0;entryDy=0;" edge="1" parent="1" source="-64R4cn32s9kmWbZgJ81-3" target="-64R4cn32s9kmWbZgJ81-76">
          <mxGeometry relative="1" as="geometry">
            <mxPoint x="1200" y="900" as="sourcePoint" />
            <mxPoint x="1360" y="900" as="targetPoint" />
          </mxGeometry>
        </mxCell>
        <mxCell id="-64R4cn32s9kmWbZgJ81-79" value="categories" style="shape=table;startSize=30;container=1;collapsible=1;childLayout=tableLayout;fixedRows=1;rowLines=0;fontStyle=1;align=center;resizeLast=1;html=1;" vertex="1" parent="1">
          <mxGeometry x="520" y="70" width="180" height="90" as="geometry" />
        </mxCell>
        <mxCell id="-64R4cn32s9kmWbZgJ81-80" value="" style="shape=tableRow;horizontal=0;startSize=0;swimlaneHead=0;swimlaneBody=0;fillColor=none;collapsible=0;dropTarget=0;points=[[0,0.5],[1,0.5]];portConstraint=eastwest;top=0;left=0;right=0;bottom=1;" vertex="1" parent="-64R4cn32s9kmWbZgJ81-79">
          <mxGeometry y="30" width="180" height="30" as="geometry" />
        </mxCell>
        <mxCell id="-64R4cn32s9kmWbZgJ81-81" value="PK" style="shape=partialRectangle;connectable=0;fillColor=none;top=0;left=0;bottom=0;right=0;fontStyle=1;overflow=hidden;whiteSpace=wrap;html=1;" vertex="1" parent="-64R4cn32s9kmWbZgJ81-80">
          <mxGeometry width="30" height="30" as="geometry">
            <mxRectangle width="30" height="30" as="alternateBounds" />
          </mxGeometry>
        </mxCell>
        <mxCell id="-64R4cn32s9kmWbZgJ81-82" value="id" style="shape=partialRectangle;connectable=0;fillColor=none;top=0;left=0;bottom=0;right=0;align=left;spacingLeft=6;fontStyle=5;overflow=hidden;whiteSpace=wrap;html=1;" vertex="1" parent="-64R4cn32s9kmWbZgJ81-80">
          <mxGeometry x="30" width="150" height="30" as="geometry">
            <mxRectangle width="150" height="30" as="alternateBounds" />
          </mxGeometry>
        </mxCell>
        <mxCell id="-64R4cn32s9kmWbZgJ81-83" value="" style="shape=tableRow;horizontal=0;startSize=0;swimlaneHead=0;swimlaneBody=0;fillColor=none;collapsible=0;dropTarget=0;points=[[0,0.5],[1,0.5]];portConstraint=eastwest;top=0;left=0;right=0;bottom=0;" vertex="1" parent="-64R4cn32s9kmWbZgJ81-79">
          <mxGeometry y="60" width="180" height="30" as="geometry" />
        </mxCell>
        <mxCell id="-64R4cn32s9kmWbZgJ81-84" value="" style="shape=partialRectangle;connectable=0;fillColor=none;top=0;left=0;bottom=0;right=0;editable=1;overflow=hidden;whiteSpace=wrap;html=1;" vertex="1" parent="-64R4cn32s9kmWbZgJ81-83">
          <mxGeometry width="30" height="30" as="geometry">
            <mxRectangle width="30" height="30" as="alternateBounds" />
          </mxGeometry>
        </mxCell>
        <mxCell id="-64R4cn32s9kmWbZgJ81-85" value="name" style="shape=partialRectangle;connectable=0;fillColor=none;top=0;left=0;bottom=0;right=0;align=left;spacingLeft=6;overflow=hidden;whiteSpace=wrap;html=1;" vertex="1" parent="-64R4cn32s9kmWbZgJ81-83">
          <mxGeometry x="30" width="150" height="30" as="geometry">
            <mxRectangle width="150" height="30" as="alternateBounds" />
          </mxGeometry>
        </mxCell>
        <mxCell id="-64R4cn32s9kmWbZgJ81-86" value="posts_id(FK)" style="ellipse;whiteSpace=wrap;html=1;align=center;" vertex="1" parent="1">
          <mxGeometry x="1010" y="1010" width="100" height="40" as="geometry" />
        </mxCell>
        <mxCell id="-64R4cn32s9kmWbZgJ81-87" value="users_id(FK)" style="ellipse;whiteSpace=wrap;html=1;align=center;" vertex="1" parent="1">
          <mxGeometry x="1360" y="1010" width="100" height="40" as="geometry" />
        </mxCell>
        <mxCell id="-64R4cn32s9kmWbZgJ81-88" value="" style="endArrow=none;html=1;rounded=0;exitX=1;exitY=0.5;exitDx=0;exitDy=0;entryX=0;entryY=0.5;entryDx=0;entryDy=0;" edge="1" parent="1" source="-64R4cn32s9kmWbZgJ81-86" target="-64R4cn32s9kmWbZgJ81-4">
          <mxGeometry relative="1" as="geometry">
            <mxPoint x="1210" y="901" as="sourcePoint" />
            <mxPoint x="1240" y="871" as="targetPoint" />
          </mxGeometry>
        </mxCell>
        <mxCell id="-64R4cn32s9kmWbZgJ81-89" value="" style="endArrow=none;html=1;rounded=0;exitX=1;exitY=0.5;exitDx=0;exitDy=0;entryX=0;entryY=0.5;entryDx=0;entryDy=0;" edge="1" parent="1" source="-64R4cn32s9kmWbZgJ81-4" target="-64R4cn32s9kmWbZgJ81-87">
          <mxGeometry relative="1" as="geometry">
            <mxPoint x="1300" y="1029.23" as="sourcePoint" />
            <mxPoint x="1370" y="1000" as="targetPoint" />
          </mxGeometry>
        </mxCell>
        <mxCell id="-64R4cn32s9kmWbZgJ81-90" value="views" style="shape=table;startSize=30;container=1;collapsible=1;childLayout=tableLayout;fixedRows=1;rowLines=0;fontStyle=1;align=center;resizeLast=1;html=1;" vertex="1" parent="1">
          <mxGeometry x="270" y="250" width="180" height="120" as="geometry" />
        </mxCell>
        <mxCell id="-64R4cn32s9kmWbZgJ81-91" value="" style="shape=tableRow;horizontal=0;startSize=0;swimlaneHead=0;swimlaneBody=0;fillColor=none;collapsible=0;dropTarget=0;points=[[0,0.5],[1,0.5]];portConstraint=eastwest;top=0;left=0;right=0;bottom=1;" vertex="1" parent="-64R4cn32s9kmWbZgJ81-90">
          <mxGeometry y="30" width="180" height="30" as="geometry" />
        </mxCell>
        <mxCell id="-64R4cn32s9kmWbZgJ81-92" value="PK" style="shape=partialRectangle;connectable=0;fillColor=none;top=0;left=0;bottom=0;right=0;fontStyle=1;overflow=hidden;whiteSpace=wrap;html=1;" vertex="1" parent="-64R4cn32s9kmWbZgJ81-91">
          <mxGeometry width="30" height="30" as="geometry">
            <mxRectangle width="30" height="30" as="alternateBounds" />
          </mxGeometry>
        </mxCell>
        <mxCell id="-64R4cn32s9kmWbZgJ81-93" value="id" style="shape=partialRectangle;connectable=0;fillColor=none;top=0;left=0;bottom=0;right=0;align=left;spacingLeft=6;fontStyle=5;overflow=hidden;whiteSpace=wrap;html=1;" vertex="1" parent="-64R4cn32s9kmWbZgJ81-91">
          <mxGeometry x="30" width="150" height="30" as="geometry">
            <mxRectangle width="150" height="30" as="alternateBounds" />
          </mxGeometry>
        </mxCell>
        <mxCell id="-64R4cn32s9kmWbZgJ81-94" value="" style="shape=tableRow;horizontal=0;startSize=0;swimlaneHead=0;swimlaneBody=0;fillColor=none;collapsible=0;dropTarget=0;points=[[0,0.5],[1,0.5]];portConstraint=eastwest;top=0;left=0;right=0;bottom=1;" vertex="1" parent="-64R4cn32s9kmWbZgJ81-90">
          <mxGeometry y="60" width="180" height="30" as="geometry" />
        </mxCell>
        <mxCell id="-64R4cn32s9kmWbZgJ81-95" value="FK" style="shape=partialRectangle;connectable=0;fillColor=none;top=0;left=0;bottom=0;right=0;fontStyle=1;overflow=hidden;whiteSpace=wrap;html=1;" vertex="1" parent="-64R4cn32s9kmWbZgJ81-94">
          <mxGeometry width="30" height="30" as="geometry">
            <mxRectangle width="30" height="30" as="alternateBounds" />
          </mxGeometry>
        </mxCell>
        <mxCell id="-64R4cn32s9kmWbZgJ81-96" value="users_id" style="shape=partialRectangle;connectable=0;fillColor=none;top=0;left=0;bottom=0;right=0;align=left;spacingLeft=6;fontStyle=5;overflow=hidden;whiteSpace=wrap;html=1;" vertex="1" parent="-64R4cn32s9kmWbZgJ81-94">
          <mxGeometry x="30" width="150" height="30" as="geometry">
            <mxRectangle width="150" height="30" as="alternateBounds" />
          </mxGeometry>
        </mxCell>
        <mxCell id="-64R4cn32s9kmWbZgJ81-97" value="" style="shape=tableRow;horizontal=0;startSize=0;swimlaneHead=0;swimlaneBody=0;fillColor=none;collapsible=0;dropTarget=0;points=[[0,0.5],[1,0.5]];portConstraint=eastwest;top=0;left=0;right=0;bottom=1;" vertex="1" parent="-64R4cn32s9kmWbZgJ81-90">
          <mxGeometry y="90" width="180" height="30" as="geometry" />
        </mxCell>
        <mxCell id="-64R4cn32s9kmWbZgJ81-98" value="FK" style="shape=partialRectangle;connectable=0;fillColor=none;top=0;left=0;bottom=0;right=0;fontStyle=1;overflow=hidden;whiteSpace=wrap;html=1;" vertex="1" parent="-64R4cn32s9kmWbZgJ81-97">
          <mxGeometry width="30" height="30" as="geometry">
            <mxRectangle width="30" height="30" as="alternateBounds" />
          </mxGeometry>
        </mxCell>
        <mxCell id="-64R4cn32s9kmWbZgJ81-99" value="posts_id" style="shape=partialRectangle;connectable=0;fillColor=none;top=0;left=0;bottom=0;right=0;align=left;spacingLeft=6;fontStyle=5;overflow=hidden;whiteSpace=wrap;html=1;" vertex="1" parent="-64R4cn32s9kmWbZgJ81-97">
          <mxGeometry x="30" width="150" height="30" as="geometry">
            <mxRectangle width="150" height="30" as="alternateBounds" />
          </mxGeometry>
        </mxCell>
        <mxCell id="-64R4cn32s9kmWbZgJ81-100" value="id" style="ellipse;whiteSpace=wrap;html=1;align=center;fontStyle=4;" vertex="1" parent="1">
          <mxGeometry x="1190" y="900" width="100" height="40" as="geometry" />
        </mxCell>
        <mxCell id="-64R4cn32s9kmWbZgJ81-101" value="" style="endArrow=none;html=1;rounded=0;exitX=0.5;exitY=1;exitDx=0;exitDy=0;entryX=0.5;entryY=0;entryDx=0;entryDy=0;" edge="1" parent="1" source="-64R4cn32s9kmWbZgJ81-100" target="-64R4cn32s9kmWbZgJ81-4">
          <mxGeometry relative="1" as="geometry">
            <mxPoint x="1300" y="863" as="sourcePoint" />
            <mxPoint x="1340" y="863" as="targetPoint" />
          </mxGeometry>
        </mxCell>
        <mxCell id="-64R4cn32s9kmWbZgJ81-102" value="id" style="ellipse;whiteSpace=wrap;html=1;align=center;fontStyle=4;" vertex="1" parent="1">
          <mxGeometry x="1190" y="1150" width="100" height="40" as="geometry" />
        </mxCell>
        <mxCell id="-64R4cn32s9kmWbZgJ81-103" value="" style="endArrow=none;html=1;rounded=0;exitX=0.5;exitY=1;exitDx=0;exitDy=0;entryX=0.5;entryY=0;entryDx=0;entryDy=0;" edge="1" parent="1" source="-64R4cn32s9kmWbZgJ81-102" target="-64R4cn32s9kmWbZgJ81-5">
          <mxGeometry relative="1" as="geometry">
            <mxPoint x="1300" y="1113" as="sourcePoint" />
            <mxPoint x="1210" y="1230" as="targetPoint" />
          </mxGeometry>
        </mxCell>
        <mxCell id="-64R4cn32s9kmWbZgJ81-104" value="tag" style="ellipse;whiteSpace=wrap;html=1;align=center;" vertex="1" parent="1">
          <mxGeometry x="1360" y="1260" width="100" height="40" as="geometry" />
        </mxCell>
        <mxCell id="-64R4cn32s9kmWbZgJ81-105" value="" style="endArrow=none;html=1;rounded=0;entryX=0;entryY=0.5;entryDx=0;entryDy=0;exitX=1;exitY=0.5;exitDx=0;exitDy=0;" edge="1" parent="1" source="-64R4cn32s9kmWbZgJ81-5" target="-64R4cn32s9kmWbZgJ81-104">
          <mxGeometry relative="1" as="geometry">
            <mxPoint x="1370" y="1380" as="sourcePoint" />
            <mxPoint x="1340" y="1350" as="targetPoint" />
          </mxGeometry>
        </mxCell>
        <mxCell id="-64R4cn32s9kmWbZgJ81-106" value="likes" style="rounded=0;whiteSpace=wrap;html=1;" vertex="1" parent="1">
          <mxGeometry x="1180" y="1550" width="120" height="60" as="geometry" />
        </mxCell>
        <mxCell id="-64R4cn32s9kmWbZgJ81-107" value="id" style="ellipse;whiteSpace=wrap;html=1;align=center;fontStyle=4;" vertex="1" parent="1">
          <mxGeometry x="1190" y="1450" width="100" height="40" as="geometry" />
        </mxCell>
        <mxCell id="-64R4cn32s9kmWbZgJ81-108" value="" style="endArrow=none;html=1;rounded=0;exitX=0.5;exitY=1;exitDx=0;exitDy=0;entryX=0.5;entryY=0;entryDx=0;entryDy=0;" edge="1" parent="1" source="-64R4cn32s9kmWbZgJ81-107" target="-64R4cn32s9kmWbZgJ81-106">
          <mxGeometry relative="1" as="geometry">
            <mxPoint x="1300" y="1413" as="sourcePoint" />
            <mxPoint x="1210" y="1530" as="targetPoint" />
          </mxGeometry>
        </mxCell>
        <mxCell id="-64R4cn32s9kmWbZgJ81-109" value="users_id(FK)" style="ellipse;whiteSpace=wrap;html=1;align=center;" vertex="1" parent="1">
          <mxGeometry x="1360" y="1560" width="100" height="40" as="geometry" />
        </mxCell>
        <mxCell id="-64R4cn32s9kmWbZgJ81-110" value="" style="endArrow=none;html=1;rounded=0;entryX=0;entryY=0.5;entryDx=0;entryDy=0;exitX=1;exitY=0.5;exitDx=0;exitDy=0;" edge="1" parent="1" source="-64R4cn32s9kmWbZgJ81-106" target="-64R4cn32s9kmWbZgJ81-109">
          <mxGeometry relative="1" as="geometry">
            <mxPoint x="1370" y="1680" as="sourcePoint" />
            <mxPoint x="1340" y="1650" as="targetPoint" />
          </mxGeometry>
        </mxCell>
        <mxCell id="-64R4cn32s9kmWbZgJ81-111" value="posts_id(FK)" style="ellipse;whiteSpace=wrap;html=1;align=center;" vertex="1" parent="1">
          <mxGeometry x="1190" y="1680" width="100" height="40" as="geometry" />
        </mxCell>
        <mxCell id="-64R4cn32s9kmWbZgJ81-112" value="hashtags" style="shape=table;startSize=30;container=1;collapsible=1;childLayout=tableLayout;fixedRows=1;rowLines=0;fontStyle=1;align=center;resizeLast=1;html=1;" vertex="1" parent="1">
          <mxGeometry x="270" y="420" width="180" height="90" as="geometry" />
        </mxCell>
        <mxCell id="-64R4cn32s9kmWbZgJ81-113" value="" style="shape=tableRow;horizontal=0;startSize=0;swimlaneHead=0;swimlaneBody=0;fillColor=none;collapsible=0;dropTarget=0;points=[[0,0.5],[1,0.5]];portConstraint=eastwest;top=0;left=0;right=0;bottom=1;" vertex="1" parent="-64R4cn32s9kmWbZgJ81-112">
          <mxGeometry y="30" width="180" height="30" as="geometry" />
        </mxCell>
        <mxCell id="-64R4cn32s9kmWbZgJ81-114" value="PK" style="shape=partialRectangle;connectable=0;fillColor=none;top=0;left=0;bottom=0;right=0;fontStyle=1;overflow=hidden;whiteSpace=wrap;html=1;" vertex="1" parent="-64R4cn32s9kmWbZgJ81-113">
          <mxGeometry width="30" height="30" as="geometry">
            <mxRectangle width="30" height="30" as="alternateBounds" />
          </mxGeometry>
        </mxCell>
        <mxCell id="-64R4cn32s9kmWbZgJ81-115" value="id" style="shape=partialRectangle;connectable=0;fillColor=none;top=0;left=0;bottom=0;right=0;align=left;spacingLeft=6;fontStyle=5;overflow=hidden;whiteSpace=wrap;html=1;" vertex="1" parent="-64R4cn32s9kmWbZgJ81-113">
          <mxGeometry x="30" width="150" height="30" as="geometry">
            <mxRectangle width="150" height="30" as="alternateBounds" />
          </mxGeometry>
        </mxCell>
        <mxCell id="-64R4cn32s9kmWbZgJ81-116" value="" style="shape=tableRow;horizontal=0;startSize=0;swimlaneHead=0;swimlaneBody=0;fillColor=none;collapsible=0;dropTarget=0;points=[[0,0.5],[1,0.5]];portConstraint=eastwest;top=0;left=0;right=0;bottom=0;" vertex="1" parent="-64R4cn32s9kmWbZgJ81-112">
          <mxGeometry y="60" width="180" height="30" as="geometry" />
        </mxCell>
        <mxCell id="-64R4cn32s9kmWbZgJ81-117" value="" style="shape=partialRectangle;connectable=0;fillColor=none;top=0;left=0;bottom=0;right=0;editable=1;overflow=hidden;whiteSpace=wrap;html=1;" vertex="1" parent="-64R4cn32s9kmWbZgJ81-116">
          <mxGeometry width="30" height="30" as="geometry">
            <mxRectangle width="30" height="30" as="alternateBounds" />
          </mxGeometry>
        </mxCell>
        <mxCell id="-64R4cn32s9kmWbZgJ81-118" value="tag" style="shape=partialRectangle;connectable=0;fillColor=none;top=0;left=0;bottom=0;right=0;align=left;spacingLeft=6;overflow=hidden;whiteSpace=wrap;html=1;" vertex="1" parent="-64R4cn32s9kmWbZgJ81-116">
          <mxGeometry x="30" width="150" height="30" as="geometry">
            <mxRectangle width="150" height="30" as="alternateBounds" />
          </mxGeometry>
        </mxCell>
        <mxCell id="-64R4cn32s9kmWbZgJ81-119" value="likes" style="shape=table;startSize=30;container=1;collapsible=1;childLayout=tableLayout;fixedRows=1;rowLines=0;fontStyle=1;align=center;resizeLast=1;html=1;" vertex="1" parent="1">
          <mxGeometry x="40" y="90" width="180" height="120" as="geometry" />
        </mxCell>
        <mxCell id="-64R4cn32s9kmWbZgJ81-120" value="" style="shape=tableRow;horizontal=0;startSize=0;swimlaneHead=0;swimlaneBody=0;fillColor=none;collapsible=0;dropTarget=0;points=[[0,0.5],[1,0.5]];portConstraint=eastwest;top=0;left=0;right=0;bottom=1;" vertex="1" parent="-64R4cn32s9kmWbZgJ81-119">
          <mxGeometry y="30" width="180" height="30" as="geometry" />
        </mxCell>
        <mxCell id="-64R4cn32s9kmWbZgJ81-121" value="PK" style="shape=partialRectangle;connectable=0;fillColor=none;top=0;left=0;bottom=0;right=0;fontStyle=1;overflow=hidden;whiteSpace=wrap;html=1;" vertex="1" parent="-64R4cn32s9kmWbZgJ81-120">
          <mxGeometry width="30" height="30" as="geometry">
            <mxRectangle width="30" height="30" as="alternateBounds" />
          </mxGeometry>
        </mxCell>
        <mxCell id="-64R4cn32s9kmWbZgJ81-122" value="id" style="shape=partialRectangle;connectable=0;fillColor=none;top=0;left=0;bottom=0;right=0;align=left;spacingLeft=6;fontStyle=5;overflow=hidden;whiteSpace=wrap;html=1;" vertex="1" parent="-64R4cn32s9kmWbZgJ81-120">
          <mxGeometry x="30" width="150" height="30" as="geometry">
            <mxRectangle width="150" height="30" as="alternateBounds" />
          </mxGeometry>
        </mxCell>
        <mxCell id="-64R4cn32s9kmWbZgJ81-123" value="" style="shape=tableRow;horizontal=0;startSize=0;swimlaneHead=0;swimlaneBody=0;fillColor=none;collapsible=0;dropTarget=0;points=[[0,0.5],[1,0.5]];portConstraint=eastwest;top=0;left=0;right=0;bottom=1;" vertex="1" parent="-64R4cn32s9kmWbZgJ81-119">
          <mxGeometry y="60" width="180" height="30" as="geometry" />
        </mxCell>
        <mxCell id="-64R4cn32s9kmWbZgJ81-124" value="FK" style="shape=partialRectangle;connectable=0;fillColor=none;top=0;left=0;bottom=0;right=0;fontStyle=1;overflow=hidden;whiteSpace=wrap;html=1;" vertex="1" parent="-64R4cn32s9kmWbZgJ81-123">
          <mxGeometry width="30" height="30" as="geometry">
            <mxRectangle width="30" height="30" as="alternateBounds" />
          </mxGeometry>
        </mxCell>
        <mxCell id="-64R4cn32s9kmWbZgJ81-125" value="users_id" style="shape=partialRectangle;connectable=0;fillColor=none;top=0;left=0;bottom=0;right=0;align=left;spacingLeft=6;fontStyle=5;overflow=hidden;whiteSpace=wrap;html=1;" vertex="1" parent="-64R4cn32s9kmWbZgJ81-123">
          <mxGeometry x="30" width="150" height="30" as="geometry">
            <mxRectangle width="150" height="30" as="alternateBounds" />
          </mxGeometry>
        </mxCell>
        <mxCell id="-64R4cn32s9kmWbZgJ81-126" value="" style="shape=tableRow;horizontal=0;startSize=0;swimlaneHead=0;swimlaneBody=0;fillColor=none;collapsible=0;dropTarget=0;points=[[0,0.5],[1,0.5]];portConstraint=eastwest;top=0;left=0;right=0;bottom=1;" vertex="1" parent="-64R4cn32s9kmWbZgJ81-119">
          <mxGeometry y="90" width="180" height="30" as="geometry" />
        </mxCell>
        <mxCell id="-64R4cn32s9kmWbZgJ81-127" value="FK" style="shape=partialRectangle;connectable=0;fillColor=none;top=0;left=0;bottom=0;right=0;fontStyle=1;overflow=hidden;whiteSpace=wrap;html=1;" vertex="1" parent="-64R4cn32s9kmWbZgJ81-126">
          <mxGeometry width="30" height="30" as="geometry">
            <mxRectangle width="30" height="30" as="alternateBounds" />
          </mxGeometry>
        </mxCell>
        <mxCell id="-64R4cn32s9kmWbZgJ81-128" value="posts_id" style="shape=partialRectangle;connectable=0;fillColor=none;top=0;left=0;bottom=0;right=0;align=left;spacingLeft=6;fontStyle=5;overflow=hidden;whiteSpace=wrap;html=1;" vertex="1" parent="-64R4cn32s9kmWbZgJ81-126">
          <mxGeometry x="30" width="150" height="30" as="geometry">
            <mxRectangle width="150" height="30" as="alternateBounds" />
          </mxGeometry>
        </mxCell>
        <mxCell id="-64R4cn32s9kmWbZgJ81-129" value="" style="endArrow=none;html=1;rounded=0;entryX=0.5;entryY=0;entryDx=0;entryDy=0;exitX=0.5;exitY=1;exitDx=0;exitDy=0;" edge="1" parent="1" source="-64R4cn32s9kmWbZgJ81-106" target="-64R4cn32s9kmWbZgJ81-111">
          <mxGeometry relative="1" as="geometry">
            <mxPoint x="1250" y="1630" as="sourcePoint" />
            <mxPoint x="1280" y="1640" as="targetPoint" />
          </mxGeometry>
        </mxCell>
        <mxCell id="-64R4cn32s9kmWbZgJ81-130" value="posts_hashtags" style="rounded=0;whiteSpace=wrap;html=1;" vertex="1" parent="1">
          <mxGeometry x="1180" y="2370" width="120" height="60" as="geometry" />
        </mxCell>
        <mxCell id="-64R4cn32s9kmWbZgJ81-131" value="users_id(FK)" style="ellipse;whiteSpace=wrap;html=1;align=center;" vertex="1" parent="1">
          <mxGeometry x="1010" y="2380" width="100" height="40" as="geometry" />
        </mxCell>
        <mxCell id="-64R4cn32s9kmWbZgJ81-132" value="hashtags_id(FK)" style="ellipse;whiteSpace=wrap;html=1;align=center;" vertex="1" parent="1">
          <mxGeometry x="1190" y="2500" width="100" height="40" as="geometry" />
        </mxCell>
        <mxCell id="-64R4cn32s9kmWbZgJ81-133" value="" style="endArrow=none;html=1;rounded=0;entryX=0;entryY=0.5;entryDx=0;entryDy=0;exitX=1;exitY=0.5;exitDx=0;exitDy=0;" edge="1" parent="1" source="-64R4cn32s9kmWbZgJ81-131" target="-64R4cn32s9kmWbZgJ81-130">
          <mxGeometry relative="1" as="geometry">
            <mxPoint x="1200" y="2490" as="sourcePoint" />
            <mxPoint x="1260" y="2490" as="targetPoint" />
          </mxGeometry>
        </mxCell>
        <mxCell id="-64R4cn32s9kmWbZgJ81-134" value="" style="endArrow=none;html=1;rounded=0;entryX=0.5;entryY=1;entryDx=0;entryDy=0;exitX=0.5;exitY=0;exitDx=0;exitDy=0;" edge="1" parent="1" source="-64R4cn32s9kmWbZgJ81-132" target="-64R4cn32s9kmWbZgJ81-130">
          <mxGeometry relative="1" as="geometry">
            <mxPoint x="1350" y="2490" as="sourcePoint" />
            <mxPoint x="1410" y="2490" as="targetPoint" />
          </mxGeometry>
        </mxCell>
        <mxCell id="-64R4cn32s9kmWbZgJ81-135" value="id" style="ellipse;whiteSpace=wrap;html=1;align=center;fontStyle=4;" vertex="1" parent="1">
          <mxGeometry x="1360" y="2380" width="100" height="40" as="geometry" />
        </mxCell>
        <mxCell id="-64R4cn32s9kmWbZgJ81-136" value="" style="endArrow=none;html=1;rounded=0;entryX=0;entryY=0.5;entryDx=0;entryDy=0;exitX=1;exitY=0.5;exitDx=0;exitDy=0;" edge="1" parent="1" source="-64R4cn32s9kmWbZgJ81-130" target="-64R4cn32s9kmWbZgJ81-135">
          <mxGeometry relative="1" as="geometry">
            <mxPoint x="1340" y="2340" as="sourcePoint" />
            <mxPoint x="1400" y="2340" as="targetPoint" />
          </mxGeometry>
        </mxCell>
        <mxCell id="-64R4cn32s9kmWbZgJ81-137" value="posts_hashtags" style="shape=table;startSize=30;container=1;collapsible=1;childLayout=tableLayout;fixedRows=1;rowLines=0;fontStyle=1;align=center;resizeLast=1;html=1;" vertex="1" parent="1">
          <mxGeometry x="270" y="550" width="180" height="120" as="geometry" />
        </mxCell>
        <mxCell id="-64R4cn32s9kmWbZgJ81-138" value="" style="shape=tableRow;horizontal=0;startSize=0;swimlaneHead=0;swimlaneBody=0;fillColor=none;collapsible=0;dropTarget=0;points=[[0,0.5],[1,0.5]];portConstraint=eastwest;top=0;left=0;right=0;bottom=1;" vertex="1" parent="-64R4cn32s9kmWbZgJ81-137">
          <mxGeometry y="30" width="180" height="30" as="geometry" />
        </mxCell>
        <mxCell id="-64R4cn32s9kmWbZgJ81-139" value="PK" style="shape=partialRectangle;connectable=0;fillColor=none;top=0;left=0;bottom=0;right=0;fontStyle=1;overflow=hidden;whiteSpace=wrap;html=1;" vertex="1" parent="-64R4cn32s9kmWbZgJ81-138">
          <mxGeometry width="30" height="30" as="geometry">
            <mxRectangle width="30" height="30" as="alternateBounds" />
          </mxGeometry>
        </mxCell>
        <mxCell id="-64R4cn32s9kmWbZgJ81-140" value="id" style="shape=partialRectangle;connectable=0;fillColor=none;top=0;left=0;bottom=0;right=0;align=left;spacingLeft=6;fontStyle=5;overflow=hidden;whiteSpace=wrap;html=1;" vertex="1" parent="-64R4cn32s9kmWbZgJ81-138">
          <mxGeometry x="30" width="150" height="30" as="geometry">
            <mxRectangle width="150" height="30" as="alternateBounds" />
          </mxGeometry>
        </mxCell>
        <mxCell id="-64R4cn32s9kmWbZgJ81-141" value="" style="shape=tableRow;horizontal=0;startSize=0;swimlaneHead=0;swimlaneBody=0;fillColor=none;collapsible=0;dropTarget=0;points=[[0,0.5],[1,0.5]];portConstraint=eastwest;top=0;left=0;right=0;bottom=1;" vertex="1" parent="-64R4cn32s9kmWbZgJ81-137">
          <mxGeometry y="60" width="180" height="30" as="geometry" />
        </mxCell>
        <mxCell id="-64R4cn32s9kmWbZgJ81-142" value="FK" style="shape=partialRectangle;connectable=0;fillColor=none;top=0;left=0;bottom=0;right=0;fontStyle=1;overflow=hidden;whiteSpace=wrap;html=1;" vertex="1" parent="-64R4cn32s9kmWbZgJ81-141">
          <mxGeometry width="30" height="30" as="geometry">
            <mxRectangle width="30" height="30" as="alternateBounds" />
          </mxGeometry>
        </mxCell>
        <mxCell id="-64R4cn32s9kmWbZgJ81-143" value="users_id" style="shape=partialRectangle;connectable=0;fillColor=none;top=0;left=0;bottom=0;right=0;align=left;spacingLeft=6;fontStyle=5;overflow=hidden;whiteSpace=wrap;html=1;" vertex="1" parent="-64R4cn32s9kmWbZgJ81-141">
          <mxGeometry x="30" width="150" height="30" as="geometry">
            <mxRectangle width="150" height="30" as="alternateBounds" />
          </mxGeometry>
        </mxCell>
        <mxCell id="-64R4cn32s9kmWbZgJ81-144" value="" style="shape=tableRow;horizontal=0;startSize=0;swimlaneHead=0;swimlaneBody=0;fillColor=none;collapsible=0;dropTarget=0;points=[[0,0.5],[1,0.5]];portConstraint=eastwest;top=0;left=0;right=0;bottom=1;" vertex="1" parent="-64R4cn32s9kmWbZgJ81-137">
          <mxGeometry y="90" width="180" height="30" as="geometry" />
        </mxCell>
        <mxCell id="-64R4cn32s9kmWbZgJ81-145" value="FK" style="shape=partialRectangle;connectable=0;fillColor=none;top=0;left=0;bottom=0;right=0;fontStyle=1;overflow=hidden;whiteSpace=wrap;html=1;" vertex="1" parent="-64R4cn32s9kmWbZgJ81-144">
          <mxGeometry width="30" height="30" as="geometry">
            <mxRectangle width="30" height="30" as="alternateBounds" />
          </mxGeometry>
        </mxCell>
        <mxCell id="-64R4cn32s9kmWbZgJ81-146" value="hashtaags_id" style="shape=partialRectangle;connectable=0;fillColor=none;top=0;left=0;bottom=0;right=0;align=left;spacingLeft=6;fontStyle=5;overflow=hidden;whiteSpace=wrap;html=1;" vertex="1" parent="-64R4cn32s9kmWbZgJ81-144">
          <mxGeometry x="30" width="150" height="30" as="geometry">
            <mxRectangle width="150" height="30" as="alternateBounds" />
          </mxGeometry>
        </mxCell>
        <mxCell id="-64R4cn32s9kmWbZgJ81-147" value="id" style="ellipse;whiteSpace=wrap;html=1;align=center;fontStyle=4;" vertex="1" parent="1">
          <mxGeometry x="1190" y="1780" width="100" height="40" as="geometry" />
        </mxCell>
        <mxCell id="-64R4cn32s9kmWbZgJ81-148" value="" style="endArrow=none;html=1;rounded=0;exitX=0.5;exitY=1;exitDx=0;exitDy=0;entryX=0.5;entryY=0;entryDx=0;entryDy=0;" edge="1" parent="1" source="-64R4cn32s9kmWbZgJ81-147" target="-64R4cn32s9kmWbZgJ81-6">
          <mxGeometry relative="1" as="geometry">
            <mxPoint x="1300" y="1743" as="sourcePoint" />
            <mxPoint x="1290" y="1860" as="targetPoint" />
          </mxGeometry>
        </mxCell>
        <mxCell id="-64R4cn32s9kmWbZgJ81-149" value="users_id(FK)" style="ellipse;whiteSpace=wrap;html=1;align=center;" vertex="1" parent="1">
          <mxGeometry x="1380" y="1890" width="100" height="40" as="geometry" />
        </mxCell>
        <mxCell id="-64R4cn32s9kmWbZgJ81-150" value="" style="endArrow=none;html=1;rounded=0;entryX=0;entryY=0.5;entryDx=0;entryDy=0;exitX=1;exitY=0.5;exitDx=0;exitDy=0;" edge="1" parent="1" source="-64R4cn32s9kmWbZgJ81-6" target="-64R4cn32s9kmWbZgJ81-149">
          <mxGeometry relative="1" as="geometry">
            <mxPoint x="1430" y="1770" as="sourcePoint" />
            <mxPoint x="1490" y="1770" as="targetPoint" />
          </mxGeometry>
        </mxCell>
        <mxCell id="-64R4cn32s9kmWbZgJ81-151" value="posts_id(FK)" style="ellipse;whiteSpace=wrap;html=1;align=center;" vertex="1" parent="1">
          <mxGeometry x="1000" y="1890" width="100" height="40" as="geometry" />
        </mxCell>
        <mxCell id="-64R4cn32s9kmWbZgJ81-152" value="" style="endArrow=none;html=1;rounded=0;entryX=0;entryY=0.5;entryDx=0;entryDy=0;exitX=1;exitY=0.5;exitDx=0;exitDy=0;" edge="1" parent="1" source="-64R4cn32s9kmWbZgJ81-151" target="-64R4cn32s9kmWbZgJ81-6">
          <mxGeometry relative="1" as="geometry">
            <mxPoint x="1080" y="1830" as="sourcePoint" />
            <mxPoint x="1140" y="1830" as="targetPoint" />
          </mxGeometry>
        </mxCell>
        <mxCell id="-64R4cn32s9kmWbZgJ81-153" value="reports" style="shape=table;startSize=0;container=1;collapsible=1;childLayout=tableLayout;fixedRows=1;rowLines=0;fontStyle=1;align=center;resizeLast=1;html=1;" vertex="1" parent="1">
          <mxGeometry x="40" y="250" width="180" height="150" as="geometry" />
        </mxCell>
        <mxCell id="-64R4cn32s9kmWbZgJ81-154" value="" style="shape=tableRow;horizontal=0;startSize=0;swimlaneHead=0;swimlaneBody=0;fillColor=none;collapsible=0;dropTarget=0;points=[[0,0.5],[1,0.5]];portConstraint=eastwest;top=0;left=0;right=0;bottom=1;" vertex="1" parent="-64R4cn32s9kmWbZgJ81-153">
          <mxGeometry width="180" height="30" as="geometry" />
        </mxCell>
        <mxCell id="-64R4cn32s9kmWbZgJ81-155" value="PK" style="shape=partialRectangle;connectable=0;fillColor=none;top=0;left=0;bottom=0;right=0;fontStyle=1;overflow=hidden;whiteSpace=wrap;html=1;" vertex="1" parent="-64R4cn32s9kmWbZgJ81-154">
          <mxGeometry width="30" height="30" as="geometry">
            <mxRectangle width="30" height="30" as="alternateBounds" />
          </mxGeometry>
        </mxCell>
        <mxCell id="-64R4cn32s9kmWbZgJ81-156" value="id" style="shape=partialRectangle;connectable=0;fillColor=none;top=0;left=0;bottom=0;right=0;align=left;spacingLeft=6;fontStyle=5;overflow=hidden;whiteSpace=wrap;html=1;" vertex="1" parent="-64R4cn32s9kmWbZgJ81-154">
          <mxGeometry x="30" width="150" height="30" as="geometry">
            <mxRectangle width="150" height="30" as="alternateBounds" />
          </mxGeometry>
        </mxCell>
        <mxCell id="-64R4cn32s9kmWbZgJ81-157" value="" style="shape=tableRow;horizontal=0;startSize=0;swimlaneHead=0;swimlaneBody=0;fillColor=none;collapsible=0;dropTarget=0;points=[[0,0.5],[1,0.5]];portConstraint=eastwest;top=0;left=0;right=0;bottom=1;" vertex="1" parent="-64R4cn32s9kmWbZgJ81-153">
          <mxGeometry y="30" width="180" height="30" as="geometry" />
        </mxCell>
        <mxCell id="-64R4cn32s9kmWbZgJ81-158" value="FK" style="shape=partialRectangle;connectable=0;fillColor=none;top=0;left=0;bottom=0;right=0;fontStyle=1;overflow=hidden;whiteSpace=wrap;html=1;" vertex="1" parent="-64R4cn32s9kmWbZgJ81-157">
          <mxGeometry width="30" height="30" as="geometry">
            <mxRectangle width="30" height="30" as="alternateBounds" />
          </mxGeometry>
        </mxCell>
        <mxCell id="-64R4cn32s9kmWbZgJ81-159" value="users_id" style="shape=partialRectangle;connectable=0;fillColor=none;top=0;left=0;bottom=0;right=0;align=left;spacingLeft=6;fontStyle=5;overflow=hidden;whiteSpace=wrap;html=1;" vertex="1" parent="-64R4cn32s9kmWbZgJ81-157">
          <mxGeometry x="30" width="150" height="30" as="geometry">
            <mxRectangle width="150" height="30" as="alternateBounds" />
          </mxGeometry>
        </mxCell>
        <mxCell id="-64R4cn32s9kmWbZgJ81-160" value="" style="shape=tableRow;horizontal=0;startSize=0;swimlaneHead=0;swimlaneBody=0;fillColor=none;collapsible=0;dropTarget=0;points=[[0,0.5],[1,0.5]];portConstraint=eastwest;top=0;left=0;right=0;bottom=1;" vertex="1" parent="-64R4cn32s9kmWbZgJ81-153">
          <mxGeometry y="60" width="180" height="30" as="geometry" />
        </mxCell>
        <mxCell id="-64R4cn32s9kmWbZgJ81-161" value="FK" style="shape=partialRectangle;connectable=0;fillColor=none;top=0;left=0;bottom=0;right=0;fontStyle=1;overflow=hidden;whiteSpace=wrap;html=1;" vertex="1" parent="-64R4cn32s9kmWbZgJ81-160">
          <mxGeometry width="30" height="30" as="geometry">
            <mxRectangle width="30" height="30" as="alternateBounds" />
          </mxGeometry>
        </mxCell>
        <mxCell id="-64R4cn32s9kmWbZgJ81-162" value="posts_id" style="shape=partialRectangle;connectable=0;fillColor=none;top=0;left=0;bottom=0;right=0;align=left;spacingLeft=6;fontStyle=5;overflow=hidden;whiteSpace=wrap;html=1;" vertex="1" parent="-64R4cn32s9kmWbZgJ81-160">
          <mxGeometry x="30" width="150" height="30" as="geometry">
            <mxRectangle width="150" height="30" as="alternateBounds" />
          </mxGeometry>
        </mxCell>
        <mxCell id="-64R4cn32s9kmWbZgJ81-163" value="" style="shape=tableRow;horizontal=0;startSize=0;swimlaneHead=0;swimlaneBody=0;fillColor=none;collapsible=0;dropTarget=0;points=[[0,0.5],[1,0.5]];portConstraint=eastwest;top=0;left=0;right=0;bottom=1;" vertex="1" parent="-64R4cn32s9kmWbZgJ81-153">
          <mxGeometry y="90" width="180" height="30" as="geometry" />
        </mxCell>
        <mxCell id="-64R4cn32s9kmWbZgJ81-164" value="" style="shape=partialRectangle;connectable=0;fillColor=none;top=0;left=0;bottom=0;right=0;fontStyle=1;overflow=hidden;whiteSpace=wrap;html=1;" vertex="1" parent="-64R4cn32s9kmWbZgJ81-163">
          <mxGeometry width="30" height="30" as="geometry">
            <mxRectangle width="30" height="30" as="alternateBounds" />
          </mxGeometry>
        </mxCell>
        <mxCell id="-64R4cn32s9kmWbZgJ81-165" value="contents" style="shape=partialRectangle;connectable=0;fillColor=none;top=0;left=0;bottom=0;right=0;align=left;spacingLeft=6;fontStyle=5;overflow=hidden;whiteSpace=wrap;html=1;" vertex="1" parent="-64R4cn32s9kmWbZgJ81-163">
          <mxGeometry x="30" width="150" height="30" as="geometry">
            <mxRectangle width="150" height="30" as="alternateBounds" />
          </mxGeometry>
        </mxCell>
        <mxCell id="-64R4cn32s9kmWbZgJ81-166" value="id" style="ellipse;whiteSpace=wrap;html=1;align=center;fontStyle=4;" vertex="1" parent="1">
          <mxGeometry x="1190" y="2040" width="100" height="40" as="geometry" />
        </mxCell>
        <mxCell id="-64R4cn32s9kmWbZgJ81-167" value="" style="endArrow=none;html=1;rounded=0;exitX=0.5;exitY=1;exitDx=0;exitDy=0;entryX=0.5;entryY=0;entryDx=0;entryDy=0;" edge="1" parent="1" source="-64R4cn32s9kmWbZgJ81-166" target="-64R4cn32s9kmWbZgJ81-7">
          <mxGeometry relative="1" as="geometry">
            <mxPoint x="1370" y="2060" as="sourcePoint" />
            <mxPoint x="1370" y="2120" as="targetPoint" />
          </mxGeometry>
        </mxCell>
        <mxCell id="-64R4cn32s9kmWbZgJ81-168" value="users_id(FK)" style="ellipse;whiteSpace=wrap;html=1;align=center;" vertex="1" parent="1">
          <mxGeometry x="1360" y="2150" width="100" height="40" as="geometry" />
        </mxCell>
        <mxCell id="-64R4cn32s9kmWbZgJ81-169" value="users_id(FK)" style="ellipse;whiteSpace=wrap;html=1;align=center;" vertex="1" parent="1">
          <mxGeometry x="1010" y="2150" width="100" height="40" as="geometry" />
        </mxCell>
        <mxCell id="-64R4cn32s9kmWbZgJ81-170" value="" style="endArrow=none;html=1;rounded=0;entryX=0;entryY=0.5;entryDx=0;entryDy=0;exitX=1;exitY=0.5;exitDx=0;exitDy=0;" edge="1" parent="1" source="-64R4cn32s9kmWbZgJ81-169" target="-64R4cn32s9kmWbZgJ81-7">
          <mxGeometry relative="1" as="geometry">
            <mxPoint x="1350" y="2060" as="sourcePoint" />
            <mxPoint x="1430" y="2060" as="targetPoint" />
          </mxGeometry>
        </mxCell>
        <mxCell id="-64R4cn32s9kmWbZgJ81-171" value="" style="endArrow=none;html=1;rounded=0;entryX=0;entryY=0.5;entryDx=0;entryDy=0;exitX=1;exitY=0.5;exitDx=0;exitDy=0;" edge="1" parent="1" source="-64R4cn32s9kmWbZgJ81-7" target="-64R4cn32s9kmWbZgJ81-168">
          <mxGeometry relative="1" as="geometry">
            <mxPoint x="1390" y="2060" as="sourcePoint" />
            <mxPoint x="1470" y="2060" as="targetPoint" />
          </mxGeometry>
        </mxCell>
        <mxCell id="-64R4cn32s9kmWbZgJ81-172" value="follows" style="shape=table;startSize=30;container=1;collapsible=1;childLayout=tableLayout;fixedRows=1;rowLines=0;fontStyle=1;align=center;resizeLast=1;html=1;" vertex="1" parent="1">
          <mxGeometry x="40" y="445" width="180" height="120" as="geometry" />
        </mxCell>
        <mxCell id="-64R4cn32s9kmWbZgJ81-173" value="" style="shape=tableRow;horizontal=0;startSize=0;swimlaneHead=0;swimlaneBody=0;fillColor=none;collapsible=0;dropTarget=0;points=[[0,0.5],[1,0.5]];portConstraint=eastwest;top=0;left=0;right=0;bottom=1;" vertex="1" parent="-64R4cn32s9kmWbZgJ81-172">
          <mxGeometry y="30" width="180" height="30" as="geometry" />
        </mxCell>
        <mxCell id="-64R4cn32s9kmWbZgJ81-174" value="PK" style="shape=partialRectangle;connectable=0;fillColor=none;top=0;left=0;bottom=0;right=0;fontStyle=1;overflow=hidden;whiteSpace=wrap;html=1;" vertex="1" parent="-64R4cn32s9kmWbZgJ81-173">
          <mxGeometry width="30" height="30" as="geometry">
            <mxRectangle width="30" height="30" as="alternateBounds" />
          </mxGeometry>
        </mxCell>
        <mxCell id="-64R4cn32s9kmWbZgJ81-175" value="id" style="shape=partialRectangle;connectable=0;fillColor=none;top=0;left=0;bottom=0;right=0;align=left;spacingLeft=6;fontStyle=5;overflow=hidden;whiteSpace=wrap;html=1;" vertex="1" parent="-64R4cn32s9kmWbZgJ81-173">
          <mxGeometry x="30" width="150" height="30" as="geometry">
            <mxRectangle width="150" height="30" as="alternateBounds" />
          </mxGeometry>
        </mxCell>
        <mxCell id="-64R4cn32s9kmWbZgJ81-176" value="" style="shape=tableRow;horizontal=0;startSize=0;swimlaneHead=0;swimlaneBody=0;fillColor=none;collapsible=0;dropTarget=0;points=[[0,0.5],[1,0.5]];portConstraint=eastwest;top=0;left=0;right=0;bottom=1;" vertex="1" parent="-64R4cn32s9kmWbZgJ81-172">
          <mxGeometry y="60" width="180" height="30" as="geometry" />
        </mxCell>
        <mxCell id="-64R4cn32s9kmWbZgJ81-177" value="FK" style="shape=partialRectangle;connectable=0;fillColor=none;top=0;left=0;bottom=0;right=0;fontStyle=1;overflow=hidden;whiteSpace=wrap;html=1;" vertex="1" parent="-64R4cn32s9kmWbZgJ81-176">
          <mxGeometry width="30" height="30" as="geometry">
            <mxRectangle width="30" height="30" as="alternateBounds" />
          </mxGeometry>
        </mxCell>
        <mxCell id="-64R4cn32s9kmWbZgJ81-178" value="users_id" style="shape=partialRectangle;connectable=0;fillColor=none;top=0;left=0;bottom=0;right=0;align=left;spacingLeft=6;fontStyle=5;overflow=hidden;whiteSpace=wrap;html=1;" vertex="1" parent="-64R4cn32s9kmWbZgJ81-176">
          <mxGeometry x="30" width="150" height="30" as="geometry">
            <mxRectangle width="150" height="30" as="alternateBounds" />
          </mxGeometry>
        </mxCell>
        <mxCell id="-64R4cn32s9kmWbZgJ81-179" value="" style="shape=tableRow;horizontal=0;startSize=0;swimlaneHead=0;swimlaneBody=0;fillColor=none;collapsible=0;dropTarget=0;points=[[0,0.5],[1,0.5]];portConstraint=eastwest;top=0;left=0;right=0;bottom=1;" vertex="1" parent="-64R4cn32s9kmWbZgJ81-172">
          <mxGeometry y="90" width="180" height="30" as="geometry" />
        </mxCell>
        <mxCell id="-64R4cn32s9kmWbZgJ81-180" value="FK" style="shape=partialRectangle;connectable=0;fillColor=none;top=0;left=0;bottom=0;right=0;fontStyle=1;overflow=hidden;whiteSpace=wrap;html=1;" vertex="1" parent="-64R4cn32s9kmWbZgJ81-179">
          <mxGeometry width="30" height="30" as="geometry">
            <mxRectangle width="30" height="30" as="alternateBounds" />
          </mxGeometry>
        </mxCell>
        <mxCell id="-64R4cn32s9kmWbZgJ81-181" value="users_id" style="shape=partialRectangle;connectable=0;fillColor=none;top=0;left=0;bottom=0;right=0;align=left;spacingLeft=6;fontStyle=5;overflow=hidden;whiteSpace=wrap;html=1;" vertex="1" parent="-64R4cn32s9kmWbZgJ81-179">
          <mxGeometry x="30" width="150" height="30" as="geometry">
            <mxRectangle width="150" height="30" as="alternateBounds" />
          </mxGeometry>
        </mxCell>
        <mxCell id="-64R4cn32s9kmWbZgJ81-182" value="contents" style="ellipse;whiteSpace=wrap;html=1;align=center;" vertex="1" parent="1">
          <mxGeometry x="1350" y="1800" width="100" height="40" as="geometry" />
        </mxCell>
        <mxCell id="-64R4cn32s9kmWbZgJ81-183" value="" style="endArrow=none;html=1;rounded=0;entryX=0;entryY=1;entryDx=0;entryDy=0;exitX=1;exitY=0;exitDx=0;exitDy=0;" edge="1" parent="1" source="-64R4cn32s9kmWbZgJ81-6" target="-64R4cn32s9kmWbZgJ81-182">
          <mxGeometry relative="1" as="geometry">
            <mxPoint x="1370" y="1720" as="sourcePoint" />
            <mxPoint x="1430" y="1720" as="targetPoint" />
          </mxGeometry>
        </mxCell>
        <mxCell id="-64R4cn32s9kmWbZgJ81-184" value="" style="edgeStyle=entityRelationEdgeStyle;fontSize=12;html=1;endArrow=ERzeroToMany;startArrow=ERmandOne;rounded=0;startSize=8;endSize=8;curved=1;exitX=0.007;exitY=0.078;exitDx=0;exitDy=0;exitPerimeter=0;entryX=1;entryY=0.5;entryDx=0;entryDy=0;" edge="1" parent="1" source="-64R4cn32s9kmWbZgJ81-18" target="-64R4cn32s9kmWbZgJ81-54">
          <mxGeometry width="100" height="100" relative="1" as="geometry">
            <mxPoint x="390" y="30" as="sourcePoint" />
            <mxPoint x="490" y="-70" as="targetPoint" />
          </mxGeometry>
        </mxCell>
        <mxCell id="-64R4cn32s9kmWbZgJ81-185" value="" style="edgeStyle=entityRelationEdgeStyle;fontSize=12;html=1;endArrow=ERzeroToOne;startArrow=ERmandOne;rounded=0;startSize=8;endSize=8;curved=1;entryX=0;entryY=0.25;entryDx=0;entryDy=0;exitX=1;exitY=0.5;exitDx=0;exitDy=0;" edge="1" parent="1" source="-64R4cn32s9kmWbZgJ81-66" target="-64R4cn32s9kmWbZgJ81-79">
          <mxGeometry width="100" height="100" relative="1" as="geometry">
            <mxPoint x="360" y="170" as="sourcePoint" />
            <mxPoint x="460" y="120" as="targetPoint" />
          </mxGeometry>
        </mxCell>
      </root>
    </mxGraphModel>
  </diagram>
</mxfile>
